0
SECTION
2
HEADER
9
$INSUNITS
70
4
9
$ACADVER
1
AC1014
9
$HANDSEED
5
FFFF
0
ENDSEC
0
SECTION
2
TABLES
0
TABLE
2
VPORT
5
8
100
AcDbSymbolTable
0
ENDTAB
0
TABLE
2
LTYPE
5
5
100
AcDbSymbolTable
0
LTYPE
5
14
100
AcDbSymbolTableRecord
100
AcDbLinetypeTableRecord
2
BYBLOCK
70
0
0
LTYPE
5
15
100
AcDbSymbolTableRecord
100
AcDbLinetypeTableRecord
2
BYLAYER
70
0
0
ENDTAB
0
TABLE
2
LAYER
5
2
100
AcDbSymbolTable
70
2
0
LAYER
5
50
100
AcDbSymbolTableRecord
100
AcDbLayerTableRecord
2
0
70
0
6
CONTINUOUS
0
ENDTAB
0
TABLE
2
STYLE
5
3
100
AcDbSymbolTable
70
1
0
STYLE
5
11
100
AcDbSymbolTableRecord
100
AcDbTextStyleTableRecord
2
STANDARD
70
0
0
ENDTAB
0
TABLE
2
VIEW
5
6
100
AcDbSymbolTable
70
0
0
ENDTAB
0
TABLE
2
UCS
5
7
100
AcDbSymbolTable
70
0
0
ENDTAB
0
TABLE
2
APPID
5
9
100
AcDbSymbolTable
70
2
0
APPID
5
12
100
AcDbSymbolTableRecord
100
AcDbRegAppTableRecord
2
ACAD
70
0
0
ENDTAB
0
TABLE
2
DIMSTYLE
5
A
100
AcDbSymbolTable
70
1
0
ENDTAB
0
TABLE
2
BLOCK_RECORD
5
1
100
AcDbSymbolTable
70
1
0
BLOCK_RECORD
5
1F
100
AcDbSymbolTableRecord
100
AcDbBlockTableRecord
2
*MODEL_SPACE
0
BLOCK_RECORD
5
1B
100
AcDbSymbolTableRecord
100
AcDbBlockTableRecord
2
*PAPER_SPACE
0
ENDTAB
0
ENDSEC
0
SECTION
2
BLOCKS
0
BLOCK
5
20
100
AcDbEntity
100
AcDbBlockBegin
2
*MODEL_SPACE
0
ENDBLK
5
21
100
AcDbEntity
100
AcDbBlockEnd
0
BLOCK
5
1C
100
AcDbEntity
100
AcDbBlockBegin
2
*PAPER_SPACE
0
ENDBLK
5
1D
100
AcDbEntity
100
AcDbBlockEnd
0
ENDSEC
0
SECTION
2
ENTITIES
0
LWPOLYLINE
5
100
100
AcDbEntity
8
0
100
AcDbPolyline
90
4
70
1
43
0.0
10
-100
20
400
10
99.999999999999858
20
400.00000000000006
42
-0.99999999999999989
10
100
20
-400
10
-100.00000000000014
20
-400
42
-0.99999999999999989
0
LWPOLYLINE
5
101
100
AcDbEntity
8
0
100
AcDbPolyline
90
4
70
1
43
0.0
10
99.999999999999858
20
367.00000000000011
42
-0.99999999999999989
10
100.00000000000006
20
-367.00000000000011
10
-100.00000000000014
20
-367
42
-0.99999999999999989
10
-100.00000000000006
20
367
0
LWPOLYLINE
5
102
100
AcDbEntity
8
0
100
AcDbPolyline
90
4
70
1
43
0.0
10
-100
20
357
10
99.999999999999858
20
357.00000000000011
42
-0.99999999999999989
10
100.00000000000003
20
-356.99999999999994
10
-100.00000000000014
20
-357
42
-0.99999999999999989
0
LWPOLYLINE
5
103
100
AcDbEntity
8
0
100
AcDbPolyline
90
4
70
1
43
0.0
10
499.98718710353074
20
-420.79474317993862
10
-500.01281289646926
20
-420.79474317993856
10
-500.01281289646926
20
419.20525682006144
10
499.98718710353074
20
419.20525682006138
0
CIRCLE
5
104
100
AcDbEntity
8
0
100
AcDbCircle
10
479.98718710353074
20
-400.79474317993862
30
0
40
2.5000000000000173
210
0
220
0
230
1
0
CIRCLE
5
105
100
AcDbEntity
8
0
100
AcDbCircle
10
479.98718710353074
20
399.20525682006138
30
0
40
2.4999999999999902
210
0
220
0
230
1
0
CIRCLE
5
106
100
AcDbEntity
8
0
100
AcDbCircle
10
-480.01281289646926
20
399.20525682006144
30
0
40
2.5000000000000453
210
0
220
0
230
1
0
CIRCLE
5
107
100
AcDbEntity
8
0
100
AcDbCircle
10
-480.01281289646926
20
-400.79474317993856
30
0
40
2.4999999999999671
210
0
220
0
230
1
0
LWPOLYLINE
5
108
100
AcDbEntity
8
0
100
AcDbPolyline
90
12
70
1
43
0.0
10
351.03882651260682
20
-358.96834644413684
10
441.03882651260682
20
-358.96834644413684
10
441.03882651260682
20
-353.96834644413684
10
451.03882651260682
20
-353.96834644413684
10
451.03882651260682
20
-393.96834644413684
10
441.03882651260682
20
-393.96834644413684
10
441.03882651260682
20
-388.96834644413684
10
351.03882651260682
20
-388.96834644413684
10
351.03882651260682
20
-393.96834644413684
10
341.03882651260682
20
-393.96834644413684
10
341.03882651260682
20
-353.96834644413684
10
351.03882651260682
20
-353.96834644413684
0
LWPOLYLINE
5
109
100
AcDbEntity
8
0
100
AcDbPolyline
90
10
70
1
43
0.0
10
501.70642190078286
20
-362.06130165997581
10
516.70642190078286
20
-362.06130165997581
10
536.70642190078286
20
-362.06130165997581
10
536.70642190078286
20
-372.06130165997581
10
516.70642190078286
20
-372.06130165997581
10
516.70642190078286
20
-402.06130165997581
10
536.70642190078286
20
-402.06130165997581
10
536.70642190078286
20
-412.06130165997581
10
516.70642190078286
20
-412.06130165997581
10
501.70642190078286
20
-412.06130165997581
0
LWPOLYLINE
5
110
100
AcDbEntity
8
0
100
AcDbPolyline
90
10
70
1
43
0.0
10
536.20073541251554
20
-320.72056426666251
10
516.20073541251554
20
-320.72056426666251
10
516.20073541251554
20
-350.72056426666251
10
536.20073541251554
20
-350.72056426666251
10
536.20073541251554
20
-360.72056426666251
10
516.20073541251554
20
-360.72056426666251
10
501.20073541251554
20
-360.72056426666251
10
501.20073541251554
20
-310.72056426666256
10
516.20073541251554
20
-310.72056426666256
10
536.20073541251554
20
-310.72056426666256
0
LINE
5
111
100
AcDbEntity
8
0
100
AcDbLine
10
516.70642190078286
20
-372.06130165997581
30
0
11
516.70642190078286
21
-402.06130165997581
31
0
0
LINE
5
112
100
AcDbEntity
8
0
100
AcDbLine
10
536.70642190078286
20
-372.06130165997581
30
0
11
516.70642190078286
21
-372.06130165997581
31
0
0
LINE
5
113
100
AcDbEntity
8
0
100
AcDbLine
10
516.20073541251554
20
-360.72056426666251
30
0
11
536.20073541251554
21
-360.72056426666251
31
0
0
LINE
5
114
100
AcDbEntity
8
0
100
AcDbLine
10
536.20073541251554
20
-360.72056426666251
30
0
11
536.20073541251554
21
-350.72056426666251
31
0
0
LINE
5
115
100
AcDbEntity
8
0
100
AcDbLine
10
536.70642190078286
20
-412.06130165997581
30
0
11
536.70642190078286
21
-402.06130165997581
31
0
0
LINE
5
116
100
AcDbEntity
8
0
100
AcDbLine
10
536.20073541251554
20
-350.72056426666251
30
0
11
516.20073541251554
21
-350.72056426666251
31
0
0
LINE
5
117
100
AcDbEntity
8
0
100
AcDbLine
10
501.70642190078286
20
-362.06130165997581
30
0
11
516.70642190078286
21
-362.06130165997581
31
0
0
LINE
5
118
100
AcDbEntity
8
0
100
AcDbLine
10
536.70642190078286
20
-362.06130165997581
30
0
11
536.70642190078286
21
-372.06130165997581
31
0
0
LINE
5
119
100
AcDbEntity
8
0
100
AcDbLine
10
516.70642190078286
20
-412.06130165997581
30
0
11
501.70642190078286
21
-412.06130165997581
31
0
0
LINE
5
120
100
AcDbEntity
8
0
100
AcDbLine
10
516.70642190078286
20
-412.06130165997581
30
0
11
536.70642190078286
21
-412.06130165997581
31
0
0
LINE
5
121
100
AcDbEntity
8
0
100
AcDbLine
10
536.70642190078286
20
-402.06130165997581
30
0
11
516.70642190078286
21
-402.06130165997581
31
0
0
LINE
5
122
100
AcDbEntity
8
0
100
AcDbLine
10
516.70642190078286
20
-362.06130165997581
30
0
11
536.70642190078286
21
-362.06130165997581
31
0
0
LINE
5
123
100
AcDbEntity
8
0
100
AcDbLine
10
516.20073541251554
20
-320.72056426666251
30
0
11
516.20073541251554
21
-350.72056426666251
31
0
0
LINE
5
124
100
AcDbEntity
8
0
100
AcDbLine
10
516.20073541251554
20
-360.72056426666251
30
0
11
501.20073541251554
21
-360.72056426666251
31
0
0
LINE
5
125
100
AcDbEntity
8
0
100
AcDbLine
10
501.70642190078286
20
-252.06130165997578
30
0
11
516.70642190078286
21
-252.06130165997578
31
0
0
LINE
5
126
100
AcDbEntity
8
0
100
AcDbLine
10
516.70642190078286
20
-252.06130165997578
30
0
11
536.70642190078286
21
-252.06130165997578
31
0
0
LWPOLYLINE
5
127
100
AcDbEntity
8
0
100
AcDbPolyline
90
10
70
1
43
0.0
10
516.20073541251554
20
-200.72056426666254
10
536.20073541251554
20
-200.72056426666254
10
536.20073541251554
20
-210.72056426666251
10
516.20073541251554
20
-210.72056426666251
10
516.20073541251554
20
-240.72056426666251
10
536.20073541251554
20
-240.72056426666251
10
536.20073541251554
20
-250.72056426666251
10
516.20073541251554
20
-250.72056426666251
10
501.20073541251554
20
-250.72056426666251
10
501.20073541251554
20
-200.72056426666254
0
LWPOLYLINE
5
128
100
AcDbEntity
8
0
100
AcDbPolyline
90
10
70
1
43
0.0
10
516.70642190078286
20
-252.06130165997578
10
536.70642190078286
20
-252.06130165997578
10
536.70642190078286
20
-262.06130165997581
10
516.70642190078286
20
-262.06130165997581
10
516.70642190078286
20
-292.06130165997581
10
536.70642190078286
20
-292.06130165997581
10
536.70642190078286
20
-302.06130165997581
10
516.70642190078286
20
-302.06130165997581
10
501.70642190078286
20
-302.06130165997581
10
501.70642190078286
20
-252.06130165997578
0
LINE
5
129
100
AcDbEntity
8
0
100
AcDbLine
10
536.70642190078286
20
-302.06130165997581
30
0
11
536.70642190078286
21
-292.06130165997581
31
0
0
LINE
5
130
100
AcDbEntity
8
0
100
AcDbLine
10
536.20073541251554
20
-250.72056426666251
30
0
11
536.20073541251554
21
-240.72056426666251
31
0
0
LINE
5
131
100
AcDbEntity
8
0
100
AcDbLine
10
536.20073541251554
20
-240.72056426666251
30
0
11
516.20073541251554
21
-240.72056426666251
31
0
0
LINE
5
132
100
AcDbEntity
8
0
100
AcDbLine
10
536.70642190078286
20
-292.06130165997581
30
0
11
516.70642190078286
21
-292.06130165997581
31
0
0
LINE
5
133
100
AcDbEntity
8
0
100
AcDbLine
10
516.70642190078286
20
-302.06130165997581
30
0
11
536.70642190078286
21
-302.06130165997581
31
0
0
LINE
5
134
100
AcDbEntity
8
0
100
AcDbLine
10
536.70642190078286
20
-262.06130165997581
30
0
11
516.70642190078286
21
-262.06130165997581
31
0
0
LINE
5
135
100
AcDbEntity
8
0
100
AcDbLine
10
516.20073541251554
20
-250.72056426666251
30
0
11
501.20073541251554
21
-250.72056426666251
31
0
0
LINE
5
136
100
AcDbEntity
8
0
100
AcDbLine
10
516.20073541251554
20
-210.72056426666251
30
0
11
516.20073541251554
21
-240.72056426666251
31
0
0
LINE
5
137
100
AcDbEntity
8
0
100
AcDbLine
10
516.70642190078286
20
-302.06130165997581
30
0
11
501.70642190078286
21
-302.06130165997581
31
0
0
LINE
5
138
100
AcDbEntity
8
0
100
AcDbLine
10
536.70642190078286
20
-252.06130165997578
30
0
11
536.70642190078286
21
-262.06130165997581
31
0
0
LINE
5
139
100
AcDbEntity
8
0
100
AcDbLine
10
516.70642190078286
20
-262.06130165997581
30
0
11
516.70642190078286
21
-292.06130165997581
31
0
0
LINE
5
140
100
AcDbEntity
8
0
100
AcDbLine
10
516.20073541251554
20
-250.72056426666251
30
0
11
536.20073541251554
21
-250.72056426666251
31
0
0
LINE
5
141
100
AcDbEntity
8
0
100
AcDbLine
10
501.70642190078286
20
-142.06130165997578
30
0
11
516.70642190078286
21
-142.06130165997578
31
0
0
LINE
5
142
100
AcDbEntity
8
0
100
AcDbLine
10
516.70642190078286
20
-142.06130165997578
30
0
11
536.70642190078286
21
-142.06130165997578
31
0
0
LWPOLYLINE
5
143
100
AcDbEntity
8
0
100
AcDbPolyline
90
10
70
1
43
0.0
10
516.20073541251554
20
-90.720564266662535
10
536.20073541251554
20
-90.720564266662535
10
536.20073541251554
20
-100.72056426666251
10
516.20073541251554
20
-100.72056426666251
10
516.20073541251554
20
-130.72056426666251
10
536.20073541251554
20
-130.72056426666251
10
536.20073541251554
20
-140.72056426666251
10
516.20073541251554
20
-140.72056426666251
10
501.20073541251554
20
-140.72056426666251
10
501.20073541251554
20
-90.720564266662535
0
LWPOLYLINE
5
144
100
AcDbEntity
8
0
100
AcDbPolyline
90
10
70
1
43
0.0
10
516.70642190078286
20
-142.06130165997578
10
536.70642190078286
20
-142.06130165997578
10
536.70642190078286
20
-152.06130165997578
10
516.70642190078286
20
-152.06130165997578
10
516.70642190078286
20
-182.06130165997578
10
536.70642190078286
20
-182.06130165997578
10
536.70642190078286
20
-192.06130165997578
10
516.70642190078286
20
-192.06130165997578
10
501.70642190078286
20
-192.06130165997578
10
501.70642190078286
20
-142.06130165997578
0
LINE
5
145
100
AcDbEntity
8
0
100
AcDbLine
10
536.70642190078286
20
-192.06130165997578
30
0
11
536.70642190078286
21
-182.06130165997578
31
0
0
LINE
5
146
100
AcDbEntity
8
0
100
AcDbLine
10
536.20073541251554
20
-140.72056426666251
30
0
11
536.20073541251554
21
-130.72056426666251
31
0
0
LINE
5
147
100
AcDbEntity
8
0
100
AcDbLine
10
536.20073541251554
20
-130.72056426666251
30
0
11
516.20073541251554
21
-130.72056426666251
31
0
0
LINE
5
148
100
AcDbEntity
8
0
100
AcDbLine
10
536.70642190078286
20
-182.06130165997578
30
0
11
516.70642190078286
21
-182.06130165997578
31
0
0
LINE
5
149
100
AcDbEntity
8
0
100
AcDbLine
10
516.70642190078286
20
-192.06130165997578
30
0
11
536.70642190078286
21
-192.06130165997578
31
0
0
LINE
5
150
100
AcDbEntity
8
0
100
AcDbLine
10
536.70642190078286
20
-152.06130165997578
30
0
11
516.70642190078286
21
-152.06130165997578
31
0
0
LINE
5
151
100
AcDbEntity
8
0
100
AcDbLine
10
516.20073541251554
20
-140.72056426666251
30
0
11
501.20073541251554
21
-140.72056426666251
31
0
0
LINE
5
152
100
AcDbEntity
8
0
100
AcDbLine
10
516.20073541251554
20
-100.72056426666251
30
0
11
516.20073541251554
21
-130.72056426666251
31
0
0
LINE
5
153
100
AcDbEntity
8
0
100
AcDbLine
10
516.70642190078286
20
-192.06130165997578
30
0
11
501.70642190078286
21
-192.06130165997578
31
0
0
LINE
5
154
100
AcDbEntity
8
0
100
AcDbLine
10
536.70642190078286
20
-142.06130165997578
30
0
11
536.70642190078286
21
-152.06130165997578
31
0
0
LINE
5
155
100
AcDbEntity
8
0
100
AcDbLine
10
516.70642190078286
20
-152.06130165997578
30
0
11
516.70642190078286
21
-182.06130165997578
31
0
0
LINE
5
156
100
AcDbEntity
8
0
100
AcDbLine
10
516.20073541251554
20
-140.72056426666251
30
0
11
536.20073541251554
21
-140.72056426666251
31
0
0
LINE
5
157
100
AcDbEntity
8
0
100
AcDbLine
10
501.70642190078286
20
-37.061301659975783
30
0
11
516.70642190078286
21
-37.061301659975783
31
0
0
LINE
5
158
100
AcDbEntity
8
0
100
AcDbLine
10
516.70642190078286
20
-37.061301659975783
30
0
11
536.70642190078286
21
-37.061301659975783
31
0
0
LWPOLYLINE
5
159
100
AcDbEntity
8
0
100
AcDbPolyline
90
10
70
1
43
0.0
10
516.20073541251554
20
14.279435733337458
10
536.20073541251554
20
14.279435733337458
10
536.20073541251554
20
4.2794357333374933
10
516.20073541251554
20
4.2794357333374933
10
516.20073541251554
20
-25.720564266662507
10
536.20073541251554
20
-25.720564266662507
10
536.20073541251554
20
-35.720564266662507
10
516.20073541251554
20
-35.720564266662507
10
501.20073541251554
20
-35.720564266662507
10
501.20073541251554
20
14.279435733337458
0
LWPOLYLINE
5
160
100
AcDbEntity
8
0
100
AcDbPolyline
90
10
70
1
43
0.0
10
516.70642190078286
20
-37.061301659975783
10
536.70642190078286
20
-37.061301659975783
10
536.70642190078286
20
-47.061301659975783
10
516.70642190078286
20
-47.061301659975783
10
516.70642190078286
20
-77.061301659975783
10
536.70642190078286
20
-77.061301659975783
10
536.70642190078286
20
-87.061301659975783
10
516.70642190078286
20
-87.061301659975783
10
501.70642190078286
20
-87.061301659975783
10
501.70642190078286
20
-37.061301659975783
0
LINE
5
161
100
AcDbEntity
8
0
100
AcDbLine
10
536.70642190078286
20
-87.061301659975783
30
0
11
536.70642190078286
21
-77.061301659975783
31
0
0
LINE
5
162
100
AcDbEntity
8
0
100
AcDbLine
10
536.20073541251554
20
-35.720564266662507
30
0
11
536.20073541251554
21
-25.720564266662507
31
0
0
LINE
5
163
100
AcDbEntity
8
0
100
AcDbLine
10
536.20073541251554
20
-25.720564266662507
30
0
11
516.20073541251554
21
-25.720564266662507
31
0
0
LINE
5
164
100
AcDbEntity
8
0
100
AcDbLine
10
536.70642190078286
20
-77.061301659975783
30
0
11
516.70642190078286
21
-77.061301659975783
31
0
0
LINE
5
165
100
AcDbEntity
8
0
100
AcDbLine
10
516.70642190078286
20
-87.061301659975783
30
0
11
536.70642190078286
21
-87.061301659975783
31
0
0
LINE
5
166
100
AcDbEntity
8
0
100
AcDbLine
10
536.70642190078286
20
-47.061301659975783
30
0
11
516.70642190078286
21
-47.061301659975783
31
0
0
LINE
5
167
100
AcDbEntity
8
0
100
AcDbLine
10
516.20073541251554
20
-35.720564266662507
30
0
11
501.20073541251554
21
-35.720564266662507
31
0
0
LINE
5
168
100
AcDbEntity
8
0
100
AcDbLine
10
516.20073541251554
20
4.2794357333374933
30
0
11
516.20073541251554
21
-25.720564266662507
31
0
0
LINE
5
169
100
AcDbEntity
8
0
100
AcDbLine
10
516.70642190078286
20
-87.061301659975783
30
0
11
501.70642190078286
21
-87.061301659975783
31
0
0
LINE
5
170
100
AcDbEntity
8
0
100
AcDbLine
10
536.70642190078286
20
-37.061301659975783
30
0
11
536.70642190078286
21
-47.061301659975783
31
0
0
LINE
5
171
100
AcDbEntity
8
0
100
AcDbLine
10
516.70642190078286
20
-47.061301659975783
30
0
11
516.70642190078286
21
-77.061301659975783
31
0
0
LINE
5
172
100
AcDbEntity
8
0
100
AcDbLine
10
516.20073541251554
20
-35.720564266662507
30
0
11
536.20073541251554
21
-35.720564266662507
31
0
0
ENDSEC
0
SECTION
2
OBJECTS
0
DICTIONARY
5
C
100
AcDbDictionary
3
ACAD_GROUP
350
D
3
ACAD_MLINESTYLE
350
17
0
DICTIONARY
5
D
100
AcDbDictionary
0
DICTIONARY
5
1A
330
C
100
AcDbDictionary
0
DICTIONARY
5
17
100
AcDbDictionary
0
ENDSEC
0
EOF
