<?xml version="1.0" encoding="UTF-8"?>
<svg id="Ebene_1" data-name="Ebene 1" xmlns="http://www.w3.org/2000/svg" viewBox="0 0 433.48 676.4">
  <defs>
    <style>
      .cls-1, .cls-2 {
        fill: none;
      }

      .cls-2 {
        stroke: #1d1d1b;
        stroke-miterlimit: 10;
        stroke-width: 2px;
      }
    </style>
  </defs>
  <g>
    <path class="cls-2" d="m326.34,318c-12.77,0-54.25.04-67.01.04-15.41,0-30.81.01-46.22.03-1.55,0-1.57.1-1.57,3.6,0,23.64-.01,47.28-.03,70.92,0,2.21-.07,4.41-.08,6.62,0,1.76.15,2.17.9,2.28.65.1,1.31.12,1.96.13,5.32.08,10.64-.06,15.97-.05,22.46.05,44.91.05,67.37.05,6.54-.1,22.33-.1,28.87-.06.25,0,.5,0,.75-.02.47-.06.76-.55.75-1.72,0-.43,0-.85,0-1.28,0-25.71,0-51.41,0-77.12,0-3.26-.07-3.4-1.46-3.42-.06,0-.12,0-.19,0m26.94.06s0,.02,0,0c-6.94,0-13.88-.05-20.82-.05-1.18,0-1.19,0-1.19,2.74,0,7.9,0,15.81,0,23.71,0,18.09,0,36.17,0,54.26,0,2.6.09,2.82,1.21,2.83,1.34.02,2.68,0,4.02-.01,1.09-.01,1.06-.16,1.07-2.6.02-4.06,0-8.11,0-12.16-.02-10.18.04-18.75,0-28.93,0-1.28,0-2.51,0-3.78s0-2.73,0-4.05c0-.22.06-.7.33-1.38,0,0,.14-.34.33-.63.79-1.21,3.34-1.4,3.34-1.4,4.79-.02,16.58,0,21.37,0,1.28,0,2.1.1,3.29,1.65,1.18,1.53,1.53,4.24,1.53,6.6,0,5.07,0,8.64,0,13.76,0,10.18,0,20.36,0,30.54,0,1.93-.01,2.26.83,2.27,3.89.05.78.12,4.67.11,3.92-.01,7.84-.13,11.76-.16,4.42-.03,8.84-.02,13.26,0,.5,0,1,.03,1.49.17,1.09.31,1.65,1.84,1.64,4.34-.01,2.55-.56,4.09-1.63,4.39-.46.13-.93.09-1.4.09-11.92,0-16.84-.01-28.76-.02-.4,0-.81,0-1.21.07-.3.04-.57.34-.58,1.12-.02.91.27,1.23.61,1.28.37.06.75.06,1.12.06,8.62,0,10.24-.02,18.87-.02.43,0,.87.06,1.3.16.44.1.74.68.91,1.61.46,2.56-.11,4.62-1.31,4.78-.19.02-.37.01-.56.01-6.79,0-13.57-.02-20.36-.03-2.27,0,2.46-.02.18,0-.8,0-.94.32-.96,2.09-.03,2.42-.04,4.84-.03,7.26,0,2.05.16,2.59,1.09,2.59,2.51,0-2.01,0,.51,0h12.51c1.79,0,3.13-.2,4.32-.3,14.44-1.24,21.79-1.9,28.48-3.93,0,0,16.95-5.15,17.6-14.13.02-.29.03-.59.03-.59,0-.36,0-.8-.05-1.45-.49-6.96-2.78-12.94-6.35-20.53-1.29-2.74-2.04-4.34-3.48-7.05-1.28-2.41-3.99-7.36-14.14-22.51-2.44-3.64-3.87-5.73-5.32-7.79-2.34-3.33-4.15-5.77-5.73-7.91,0,0-14.79-19.97-19.92-24.82-.21-.19-.57-.48-1.26-1.15-.47-.45-.68-.69-1.04-.88-.32-.17-.65-.25-1-.25-6.85.03-13.7.02-20.54.02Zm-167.27.02v.06c-3.52,0-7.03,0-10.55,0-3.36,0-6.72-.01-10.08,0,0,0-.71.27-1.44.63-15.12,7.45-48.8,69.45-48.8,69.45,0,0,0,0,0,0-.67,1.39-3.83,7.99-6.14,14.5-.59,1.65-1.52,4.41-1.58,8.12,0,0-.01,1.33.13,2.67,1.04,9.73,13.06,14.67,13.06,14.67,7.21,2.96,12.7,3.11,31.32,3.16,7.29.02,7.05,0,7.18,0,6.37,0,5.81.17,12.06.04.16,0,.46.11.67-.31.23-.44.23-1.18.24-1.73.03-1.99.04-3.99.03-5.98-.01-3.62-.06-3.72-1.62-3.72-8.59,0-10.42-.17-19.01-.17-.5,0-1,.04-1.49-.08-.83-.2-1.21-1.22-1.23-3.12-.02-1.73.35-2.81,1.1-3.2.49-.26.99-.17,1.49-.17,8.65.01,10.54.2,19.19.22.25,0,.5,0,.75-.03.36-.06.72-.27.7-1.3-.01-.9-.34-1.12-.66-1.16-.37-.04-.75-.04-1.12-.04-12.01,0-17.26-.15-29.28-.14-.56,0-1.12.1-1.66-.35-.84-.69-1.25-2.24-1.2-4.55.05-2.01.59-3.55,1.44-3.9.43-.17.87-.21,1.3-.2,9.06.05,18.11.17,27.17.16,3.08,0-.6,0,2.48.08,1.66.05,1.65.06,1.65-3.71,0-14.17,0-28.34,0-42.51,0-.38-.05-1.74.14-3.4.06-.49-.32-2.47,1.23-4.17.73-.81,2.36-1.29,2.64-1.29,3.5,0,14.64,0,21.9,0,.33,0,1.46.24,2.17,1.23,1.35,1.86,1.39,3.42,1.51,4.45.23,2.04.14,3.71.14,4.25-.01,13.74-.02,27.48-.03,41.23,0,.64.01,1.28.03,1.92.02,1.1.28,1.74.76,1.76,1.65.07,3.3.12,4.95.16.52.01.71-.64.68-1.79-.03-1.28-.03-2.56-.03-3.84,0-24.71,0-49.42-.02-74.12,0-3.75-.03-3.78-1.69-3.78-6.82,0-13.63,0-20.45,0Zm56.86,101.3c-2.4,0-27.92.04-30.31.07-.91,0-1.04.3-1.06,2.33-.02,1.99-.02,3.99-.02,5.98,0,3.45.09,3.65,1.58,3.65,4.39,0,55.11-.02,59.5-.02,17.87-.03,35.73-.02,53.6-.03.34,0,.68-.02,1.03-.07.47-.06.77-.61.78-1.73.02-2.85.02-5.7.01-8.54,0-1.16-.3-1.63-.78-1.63-1.04,0-1.55-.08-1.68-.02-.79.38-26.14.41-82.64,0m123.57-44.19c0-5.05-.02-10.06,0-16.75,0-.46.03-1.24,0-2.64-.09-4.88-.25-5.96-1.1-6.88-.61-.66-1.27-1.07-1.59-1.07-1.52,0-2.73,0-4.17,0-2.67,0-12.65-.02-15.45,0-.82,0-1.93,0-3.4,0-.23,0-.91.39-1.48,1.07-.93,1.11-.71,2.4-.71,6.02,0,.99,0,2.02,0,3.01-.02,12.74.01,23.71,0,36.46,0,1.64-.04,3.11,0,4.74.04,1.64.14,2.14.87,2.3.46.1.93.11,1.4.11,5.35-.03,17.7-.07,23.05-.1.65,0,1.31.09,1.96.08.78-.01.58-.33.62-2.06,0-.36,0-.9,0-1.26v-23.03Zm-165.55,1.42c0-7.4.03-14.8-.01-22.2-.02-4.48-1.07-6.55-3.02-6.57-5.03,0-16.81-.05-21.85,0-2.49.06-3.38,2.37-3.09,6.82-.02.71-.02,1.42-.03,2.13-.04,4.13.12,8.26.06,12.37-.15,9.82.06,19.63-.05,29.44-.03,2.76.1,3,1.34,3.04.06,0,.12,0,.19,0,6,.05,18.77-.08,24.77-.03.34,0,.68,0,1.03-.04.48-.05.75-.6.77-1.72.01-.71.03-1.42.02-2.13-.13-7.04-.07-14.08-.11-21.12Zm125.28,33.71c.34,0,.68,0,1.03.02.36.02.73.19.74,1.2.02,1.16-.39,1.3-.78,1.34-.28.03-.56.02-.84.02-17.09.01-34.17.18-51.26.04-8.87,0-53.74.05-62.61.04-.16,0-.31.02-.47-.01-.35-.06-.49-.59-.48-1.31,0-.63.13-1.13.43-1.19.37-.08.75-.09,1.12-.09,18.21-.01,94.92-.06,113.13-.06Zm-135.72,9.14v-.02c-2.8,0-12.36.17-15.16.17-.53,0-1.06.03-1.59.02-.55-.01-.8.62-.8,1.83,0,2.7-.01,5.41,0,8.11,0,1.19.27,1.85.8,1.88.34.02.68.02,1.03.03,2.58.06,11.87-.14,14.46-.14h10.69c.85.02,1.01-.09,1.04-2.03.03-2.42.03-4.83.04-7.25.02-2.4-.05-2.59-1.08-2.6-3.14-.02-6.28,0-9.42,0Zm165.71-.05c-3.17,0-13.35,0-16.52,0-1.01,0-1.12.23-1.15,2.45-.02,1.89,0,3.78.01,5.67.02,3.53.08,3.84,1.73,3.82h25.24c1.17-.04,1.31.13,1.31-2.32,0-1.96,0-5.12-.01-7.08-.01-2.31-.11-2.53-1.19-2.54-3.14-.01-6.28,0-9.43,0Zm-21.64-.02h0c-.81,0-1.62-.03-2.42.02-.63.04-.8.36-.81,1.68-.03,2.82-.01,5.65-.02,8.48,0,1.07.22,1.75.72,1.76,1.65.03,3.29.03,4.94,0,.52,0,.8-.66.8-1.83,0-2.76.03-5.51,0-8.27-.02-1.45-.21-1.79-.87-1.83-.78-.05-1.55-.01-2.33-.01Zm-129.46.07v-.02c-.78,0-1.56-.03-2.33.01-.69.04-.88.35-.9,1.76-.04,2.74-.04,5.48,0,8.23.02,1.41.21,1.82.87,1.85,1.52.07,3.05.08,4.57.02.71-.02.89-.42.91-1.99.03-2.67.02-5.35-.02-8.02-.02-1.44-.2-1.79-.86-1.83-.75-.05-1.49-.01-2.24-.01Zm-14.73-9.07h0c-3.08.01-12.93.18-16.01.19-.31,0-.62.03-.93.11-.24.06-.39.45-.41,1-.02.64.11,1.13.39,1.27.24.12.49.15.74.15,6.32,0,19.4-.16,25.72-.17.25,0,.5-.04.74-.18.27-.16.41-.68.37-1.31-.03-.55-.2-.9-.44-.95-.31-.07-.62-.11-.93-.11-3.08,0-6.16,0-9.24,0Zm165.82-.05h0c-3.17,0-13.34,0-16.51.02-.42,0-.93-.18-1.04,1.19-.07.89.27,1.34,1.07,1.34,6.31.02,19.62.02,25.93,0,.25,0,.5-.05.74-.19.22-.14.35-.58.35-1.13,0-.57-.15-.98-.38-1.07-.3-.12-.62-.15-.93-.15-3.08-.01-6.15,0-9.23,0Zm-21.7,2.55c.75,0,1.49.02,2.24,0,.39-.02.86.12.94-1.19.05-.88-.26-1.27-.98-1.34-.03,0-.06,0-.09,0-1.4,0-2.8,0-4.19,0-.16,0-.31.01-.46.05-.31.08-.55.39-.56,1.16-.01.89.26,1.22.6,1.29.19.04.37.03.56.04.65,0,1.3,0,1.96,0Zm-129.39.04s0,.03,0,.04c.84,0,1.68,0,2.52,0,.32,0,.55-.28.55-1.11,0-.75-.17-1.19-.48-1.36-.09-.05-.18-.08-.28-.08-1.58,0-3.17,0-4.75.02-.36,0-.72.23-.71,1.26.01,1.03.38,1.2.74,1.22.81.03,1.61,0,2.42,0Z"/>
    <path class="cls-2" d="m269.74,395.55c-6.88,0-13.75,0-20.63,0-.47,0-.93,0-1.4-.05-1.98-.22-3.29-3.23-3.37-7.78-.03-1.78,0-3.56,0-5.34,0-14.1,0-11.33,0-25.43,0-1.5.05-2.98.18-4.46.24-2.89,1.19-5.15,2.45-5.76.52-.25,1.05-.31,1.58-.31,14.22,0,28.44,0,42.66,0,1.16,0,2.23.56,3.04,2.63.64,1.64.82,3.62.83,5.74.01,7.76.03-1.34.03,6.42,0,7.55.01,15.09.01,22.64,0,1.57,0,3.14-.06,4.69-.13,3.74-1.28,6.45-2.92,6.89-.43.12-.87.1-1.31.1-7.03,0-14.07,0-21.1,0Z"/>
    <path class="cls-2" d="m297.6,363.1c0-7.54,0,1.77,0-5.77,0-1.43.03-2.84.11-4.26.19-3.34,1.15-5.72,2.6-6.38.46-.21.92-.3,1.39-.3,4.92.01,9.83.02,14.75.02.5,0,.99.04,1.49.24,1.4.56,2.48,3.04,2.68,6.26.1,1.62.13,3.26.13,4.9,0,14.73,0,12.6,0,27.33,0,1.21-.03,2.42-.09,3.62-.17,3.67-1.4,6.41-3.01,6.72-.37.07-.75.05-1.12.05-4.92,0-9.83,0-14.75,0-.4,0-.81,0-1.21-.1-1.5-.38-2.64-2.89-2.87-6.31-.06-.84-.07-1.7-.07-2.55,0-7.83,0-15.66,0-23.48,0,0,0,0,0,0Z"/>
    <path class="cls-2" d="m241.84,363c0,8.12-.06,16.24.03,24.35.05,4.07-1.31,8.3-3.54,8.27-5.32-.08-10.64.02-15.97-.05-2.25-.03-3.6-3.2-3.6-8.33-.01-15.95,0-15.04,0-30.99,0-.99.04-1.99.11-2.97.29-4.08,1.4-6.42,3.2-6.76.4-.08.81-.06,1.21-.06,4.73,0,9.46-.02,14.19,0,.53,0,1.06.05,1.58.26,1.46.57,2.57,3.29,2.74,6.66.05,1.06.05,2.13.05,3.2,0,7.76,0-1.34,0,6.42h0Z"/>
    <path class="cls-2" d="m416.01,382.55c-6.88-.82-12.5-3.65-16.52-6.3-6.64-4.37-11-9.6-11.95-10.76-2.68-3.27-5.52-7.38-8.37-12.78,0,0-5.03-9.52-7.57-24.61-.05-.28-.19-1.12-.03-1.51.15-.36.48-.16.6-.09,16.14,9.75,31.25,31.83,31.25,31.83,8.6,12.57,13.9,20.39,13.34,23.27-.12.6-.46.85-.74.95Z"/>
    <path class="cls-2" d="m122.96,382.56c-.08-.17-.12-.38-.12-.39s-.05-.27-.04-.61c.28-6.89,14.65-25.44,14.65-25.44,5.77-7.45,6.76-8.67,8.29-10.43.94-1.07,4.77-5.44,10-10.22,6.57-6.01,9.69-7.52,10.64-8.39.24-.22.37-.26.63-.39.3-.15.65-.6.87.04.21.6,0,1.37-.12,2.01-1.01,5.51-2.18,10.74-3.82,15.53-2.11,6.17-4.29,9.77-4.91,10.93-1.64,3.06-4.21,7.4-7.71,11.53-1.77,2.1-3.39,3.67-11.09,9.29,0,0-15.09,11.02-17.28,6.53Z"/>
  </g>
  <circle class="cls-2" cx="186.97" cy="367.33" r="6.65"/>
  <path class="cls-2" d="m325.69,440.07c-.06,0-.12,0-.19,0m-161.46,113.34c2.51,0,201.78,0,204.29,0h12.51c1.79,0,3.13-.2,4.32-.3,14.44-1.24,21.79-1.9,28.48-3.93,0,0,16.95-5.15,17.6-14.13.02-.29.03-.59.03-.59,0-.36,0-.8-.05-1.45-.49-6.96-2.78-12.94-6.35-20.53-1.29-2.74-2.04-4.34-3.48-7.05-1.28-2.41-3.99-7.36-14.14-22.51-2.44-3.64-3.87-5.73-5.32-7.79-2.34-3.33-4.15-5.77-5.73-7.91,0,0-14.79-19.97-19.92-24.82-.21-.19-.57-.48-1.26-1.15-.47-.45-.68-.69-1.04-.88-.32-.17-.65-.25-1-.25-6.85.03-13.7-.03-20.54-.03,0-.02,0,.02,0,0-6.94,0-13.88,0-20.82,0m0,0c-6.82,0-139.63.07-146.44.07v.06c-3.52,0-7.03,0-10.55,0-3.36,0-6.72-.01-10.08,0,0,0-.71.27-1.44.63-15.12,7.45-48.8,69.45-48.8,69.45,0,0,0,0,0,0-.67,1.39-3.83,7.99-6.14,14.5-.59,1.65-1.52,4.41-1.58,8.12,0,0-.01,1.33.13,2.67,1.04,9.73,13.06,14.67,13.06,14.67,7.21,2.96,12.7,3.11,31.32,3.16,7.29.02,23.62.01,7.18,0"/>
  <path class="cls-2" d="m352.9,306.73c1.79,0,31.45-.2,32.64-.3,14.44-1.24,21.79-1.9,28.48-3.93,0,0,16.95-5.15,17.6-14.13.02-.29.03-.59.03-.59,0-.36,0-.8-.05-1.45-.49-6.96-2.78-12.94-6.35-20.53-1.29-2.74-2.04-4.34-3.48-7.05-1.28-2.41-3.99-7.36-14.14-22.51-2.44-3.64-3.87-5.73-5.32-7.79-2.34-3.33-4.15-5.77-5.73-7.91,0,0-14.79-19.97-19.92-24.82-.21-.19-.57-.48-1.26-1.15-.47-.45-.68-.69-1.04-.88-.32-.17-.65-.25-1-.25-6.85.03-13.61-.04-20.46-.04v19.54c4.79,0,10.04.05,14.84.03.25,0,.47.06.7.17.25.13.4.3.72.61.49.47.74.67.88.81,3.59,3.39,13.94,17.37,13.94,17.37,1.11,1.5,2.38,3.21,4.01,5.54,1.02,1.45,2.02,2.91,3.73,5.46,7.11,10.61,9,14.08,9.9,15.76,1.01,1.9,1.53,3.02,2.44,4.93,2.5,5.31,4.11,9.5,4.45,14.37.03.45.04.76.03,1.01,0,0,0,.21-.02.41-.46,6.29-12.32,9.89-12.32,9.89-4.68,1.42-9.83,1.88-19.93,2.75-.83.07-22.11.21-23.37.21v14.45Zm-172.86-12.91c-13.04-.05-36.24-.71-41.29-2.79,0,0-8.41-3.46-9.14-10.27-.1-.94-.09-1.87-.09-1.87.04-2.6.7-4.53,1.11-5.69,1.62-4.55,3.83-9.17,4.3-10.15,0,0,0,0,0,0,0,0,23.58-43.4,34.16-48.62.51-.25,1.01-.44,1.01-.44,2.35,0,7.59,0,9.95,0v-20.47c-3.36,0-11.02,0-14.39,0,0,0-.71.27-1.44.63-15.12,7.45-48.8,69.45-48.8,69.45,0,0,0,0,0,0-.67,1.39-3.83,7.99-6.14,14.5-.59,1.65-1.52,4.41-1.58,8.12,0,0-.01,1.33.13,2.67,1.04,9.73,13.06,14.67,13.06,14.67,7.21,2.96,40.53,3.11,59.16,3.15v-12.91Z"/>
  <path class="cls-2" d="m326.89,562.06c-.06,0-.12,0-.19,0m27.21,0"/>
  <path class="cls-2" d="m319.9,572.55c-.06,0-.11,0-.17,0m-145.31,87.11c2.26,0,181.6,0,183.87,0h11.26c1.61,0,2.82-.15,3.88-.23,12.99-.95,19.61-1.46,25.63-3.02,0,0,15.25-3.96,15.84-10.86.02-.23.03-.45.03-.45,0-.28,0-.62-.04-1.11-.44-5.35-2.5-9.94-5.72-15.78-1.16-2.11-1.83-3.33-3.13-5.42-1.15-1.85-3.59-5.65-12.73-17.3-2.19-2.8-3.48-4.4-4.79-5.99-2.11-2.56-3.73-4.44-5.16-6.08,0,0-13.31-15.35-17.92-19.08-.19-.15-.51-.37-1.14-.88-.42-.35-.61-.53-.93-.67-.29-.13-.58-.19-.9-.19-6.16.03-2.45-.06-8.61-.06l.05-10.45m-184.68,97.59c14.79,0,.1,0-6.46,0-16.76-.03-21.7-.15-28.19-2.43,0,0-10.82-3.8-11.75-11.27-.13-1.03-.12-2.05-.12-2.05.06-2.85.89-4.97,1.42-6.24,2.08-5,4.92-10.07,5.53-11.14,0,0,0,0,0,0,0,0,30.32-47.65,43.92-53.38.66-.28,1.29-.48,1.29-.48,3.03,0,3.15,0,6.18,0h0s0-10.45,0-10.45c-3.52,0-11.94,0-15.31,0,0,0-.71.27-1.44.63-15.12,7.45-48.8,69.45-48.8,69.45,0,0,0,0,0,0-.67,1.39-3.83,7.99-6.14,14.5-.59,1.65-1.52,4.41-1.58,8.12,0,0-.01,1.33.13,2.67,1.04,9.73,13.06,14.67,13.06,14.67,7.21,2.96,12.7,3.11,31.32,3.16,2.51,0,214.73,0,217.25,0h12.51c1.79,0,3.13-.2,4.32-.3,14.44-1.24,21.79-1.9,28.48-3.93,0,0,16.95-5.15,17.6-14.13.02-.29.03-.59.03-.59,0-.36,0-.8-.05-1.45-.49-6.96-2.78-12.94-6.35-20.53-1.29-2.74-2.04-4.34-3.48-7.05-1.28-2.41-3.99-7.36-14.14-22.51-2.44-3.64-3.87-5.73-5.32-7.79-2.34-3.33-4.15-5.77-5.73-7.91,0,0-14.79-19.97-19.92-24.82-.21-.19-.57-.48-1.26-1.15-.47-.45-.68-.69-1.04-.88-.32-.17-.65-.25-1-.25-6.85.03-13.43-.04-20.28-.04,0-.02,0,.02,0,0"/>
  <polygon class="cls-2" points="354.15 306.35 181.29 306.35 181.29 233 181.29 222.54 181.29 193.16 354.15 193.16 354.15 222.41 354.15 232.92 354.15 306.35"/>
  <rect class="cls-2" x="180.04" y="64.95" width="172.86" height="113.19"/>
  <ellipse class="cls-2" cx="266.47" cy="121.24" rx="19.99" ry="20.3"/>
  <circle class="cls-2" cx="352.88" cy="367.65" r="6.65"/>
  <rect class="cls-1" width="90.71" height="90.71"/>
  <path class="cls-1" d="m80.97,45.51c.15,5.95.24,9.71-2.22,12.36-4.16,4.48-10.43.21-14.94,4.43-4.69,4.38-.34,11.26-5.3,15.93-3.12,2.94-7.63,2.83-12.97,2.71-5.45-.12-11.89-.27-15.08-4.36-4.63-5.94,2.05-14.47-2.2-18.56-4.01-3.85-12.02,1.77-16.27-2.58-1.82-1.87-1.84-4.55-1.88-9.93-.04-6.3-.07-11.25,3.08-14.48,4.4-4.5,10.28-.85,14.08-5.27,3.31-3.87-.04-7.99,3.33-12.04,3.15-3.79,9.01-3.71,14.94-3.64,6.27.08,12.18.16,15.05,4.01,3.62,4.85-1.3,10.7,2.24,14.63,3.66,4.08,10.49-.44,15.11,3.96,2.78,2.65,2.88,6.73,3.04,12.83Z"/>
  <rect class="cls-1" x="0" y="181.15" width="90.71" height="90.71"/>
  <path class="cls-1" d="m80.97,226.66c.14,4.96.25,8.95-2.22,12.36-3.27,4.52-7.01,2.41-11.94,6.96-5.41,5-3.06,9.53-8.3,13.39-3.92,2.89-8.54,2.8-12.97,2.71-4.65-.09-10.92-.21-15.08-4.36-4.97-4.95-1.44-10.2-6.51-14.89-4.36-4.04-8.77-1.82-11.97-6.24-1.77-2.46-1.81-5.07-1.88-9.93-.08-5.88-.15-10.96,3.08-14.48,3.79-4.12,7.84-1.46,12.02-5.7,3.99-4.05,1.52-7.74,5.39-11.62,3.71-3.72,9.33-3.68,14.94-3.64,5.44.04,11.29.09,15.05,4.01,3.49,3.65,1.2,6.5,4.75,10.83,4.17,5.08,8.71,2.83,12.59,7.77,2.78,3.53,2.89,7.76,3.04,12.83Z"/>
  <rect class="cls-1" x="0" y="90.81" width="90.71" height="90.71"/>
  <path class="cls-1" d="m72.66,135.45c-.14,6.64,7.48,10.02,6.1,13.23-1.44,3.37-9.85-.26-14.94,4.43-5.45,5.02-1.99,14.84-5.3,15.93-3.35,1.11-6.66-9.02-13.58-9.38-6.86-.36-11.03,9.2-14.48,7.73-3.34-1.42.56-10.4-4.45-15.65-4.68-4.92-13.07-2.28-14.03-5.49-.84-2.84,5.78-4.77,6.55-10.36.88-6.42-6.97-10.44-5.34-14.06,1.64-3.63,9.93-.37,14.08-5.27,3.61-4.26.33-10.28,3.33-12.04,2.95-1.73,6.25,3.99,13.46,4.53,8.37.62,12.84-6.44,16.54-4.15,3.41,2.11,0,8.37,4.15,12.96,4.33,4.81,11.86,2.13,13.2,5.64,1.26,3.27-5.16,5.92-5.28,11.96Z"/>
  <rect class="cls-1" x=".29" y="271.8" width="90.71" height="90.71"/>
  <rect class="cls-1" x="7.11" y="299.15" width="76.54" height="36.85"/>
</svg>