0
SECTION
2
HEADER
9
$INSUNITS
70
4
9
$ACADVER
1
AC1014
9
$HANDSEED
5
FFFF
0
ENDSEC
0
SECTION
2
TABLES
0
TABLE
2
VPORT
5
8
100
AcDbSymbolTable
0
ENDTAB
0
TABLE
2
LTYPE
5
5
100
AcDbSymbolTable
0
LTYPE
5
14
100
AcDbSymbolTableRecord
100
AcDbLinetypeTableRecord
2
BYBLOCK
70
0
0
LTYPE
5
15
100
AcDbSymbolTableRecord
100
AcDbLinetypeTableRecord
2
BYLAYER
70
0
0
ENDTAB
0
TABLE
2
LAYER
5
2
100
AcDbSymbolTable
70
2
0
LAYER
5
50
100
AcDbSymbolTableRecord
100
AcDbLayerTableRecord
2
0
70
0
6
CONTINUOUS
0
ENDTAB
0
TABLE
2
STYLE
5
3
100
AcDbSymbolTable
70
1
0
STYLE
5
11
100
AcDbSymbolTableRecord
100
AcDbTextStyleTableRecord
2
STANDARD
70
0
0
ENDTAB
0
TABLE
2
VIEW
5
6
100
AcDbSymbolTable
70
0
0
ENDTAB
0
TABLE
2
UCS
5
7
100
AcDbSymbolTable
70
0
0
ENDTAB
0
TABLE
2
APPID
5
9
100
AcDbSymbolTable
70
2
0
APPID
5
12
100
AcDbSymbolTableRecord
100
AcDbRegAppTableRecord
2
ACAD
70
0
0
ENDTAB
0
TABLE
2
DIMSTYLE
5
A
100
AcDbSymbolTable
70
1
0
ENDTAB
0
TABLE
2
BLOCK_RECORD
5
1
100
AcDbSymbolTable
70
1
0
BLOCK_RECORD
5
1F
100
AcDbSymbolTableRecord
100
AcDbBlockTableRecord
2
*MODEL_SPACE
0
BLOCK_RECORD
5
1B
100
AcDbSymbolTableRecord
100
AcDbBlockTableRecord
2
*PAPER_SPACE
0
ENDTAB
0
ENDSEC
0
SECTION
2
BLOCKS
0
BLOCK
5
20
100
AcDbEntity
100
AcDbBlockBegin
2
*MODEL_SPACE
0
ENDBLK
5
21
100
AcDbEntity
100
AcDbBlockEnd
0
BLOCK
5
1C
100
AcDbEntity
100
AcDbBlockBegin
2
*PAPER_SPACE
0
ENDBLK
5
1D
100
AcDbEntity
100
AcDbBlockEnd
0
ENDSEC
0
SECTION
2
ENTITIES
0
LWPOLYLINE
5
100
100
AcDbEntity
8
0
100
AcDbPolyline
90
4
70
1
43
0.0
10
-294
20
-146.97527197356146
10
-294
20
-132.83313634983134
10
-191.16686365016878
20
-30
10
-177.0247280264382
20
-30
0
LWPOLYLINE
5
101
100
AcDbEntity
8
0
100
AcDbPolyline
90
4
70
1
43
0.0
10
-177.44803037986489
20
-266.12556274894223
10
-184.51909819172997
20
-259.05449493707715
10
-30
20
-104.53539674534703
10
-30
20
-118.67753236907774
0
LWPOLYLINE
5
102
100
AcDbEntity
8
0
100
AcDbPolyline
90
4
70
1
43
0.0
10
-294
20
-88.049706874682485
10
-294
20
-73.907571250952273
10
-250.09242874904774
20
-30
10
-235.95029312531736
20
-30
0
LWPOLYLINE
5
103
100
AcDbEntity
8
0
100
AcDbPolyline
90
5
70
1
43
0.0
10
-149.57359312880729
20
-293.99999999999994
10
-155.05631564229051
20
-288.51727748651672
10
-30
20
-163.46096184422601
10
-30
20
-177.60309746795659
10
-146.39690253204375
20
-293.99999999999994
0
LWPOLYLINE
5
104
100
AcDbEntity
8
0
100
AcDbPolyline
90
4
70
1
43
0.0
10
-206.91081292930434
20
-236.66278019950269
10
-213.98188074116939
20
-229.59171238763764
10
-30
20
-45.609831646467995
10
-30
20
-59.751967270198811
0
LWPOLYLINE
5
105
100
AcDbEntity
8
0
100
AcDbPolyline
90
4
70
1
43
0.0
10
-236.37359547874379
20
-207.19999765006315
10
-243.44466329060882
20
-200.1289298381981
10
-73.315733452410939
20
-30
10
-59.173597828680116
20
-30
0
LWPOLYLINE
5
106
100
AcDbEntity
8
0
100
AcDbPolyline
90
4
70
1
43
0.0
10
-265.83637802818322
20
-177.73721510062364
10
-272.90744584004824
20
-170.66614728875857
10
-132.24129855128982
20
-30
10
-118.09916292755915
20
-30
0
LWPOLYLINE
5
107
100
AcDbEntity
8
0
100
AcDbPolyline
90
4
70
1
43
0.0
10
-30
20
-222.38652694310497
10
-30
20
-236.52866256683549
10
-87.471337433164678
20
-293.99999999999994
10
-101.61347305689486
20
-293.99999999999994
0
LWPOLYLINE
5
108
100
AcDbEntity
8
0
100
AcDbPolyline
90
5
70
1
43
0.0
10
0
20
-324
10
0
20
0
10
-324
20
0
10
-324
20
-161.99999999999986
10
-162
20
-324
0
ENDSEC
0
SECTION
2
OBJECTS
0
DICTIONARY
5
C
100
AcDbDictionary
3
ACAD_GROUP
350
D
3
ACAD_MLINESTYLE
350
17
0
DICTIONARY
5
D
100
AcDbDictionary
0
DICTIONARY
5
1A
330
C
100
AcDbDictionary
0
DICTIONARY
5
17
100
AcDbDictionary
0
ENDSEC
0
EOF
